#!OML:ASF X:\für Bonn\!DataBase\2005_08_11_Bastian_Final\c3d\Bastian.ASF
:FULLY-SPECIFIED
:DEGREES
42
root 0.799765 17.2463 22.5265 -552.432 -27.7106 -180.454
lowerback 13.1422 -1.0338 -1.99251
upperback 11.1435 -3.03574 -0.299565
thorax 4.4874 -2.27082 1.02089
lowerneck 1.56583 -11.1082 -15.4279
upperneck -5.74482 -15.0631 19.73
head 0.845202 -7.80253 8.13345
rclavicle 1.32192e-014 -1.11319e-014
rhumerus -33.6053 -0.456203 -85.236
rradius 26.3636
rwrist -1.43684
rhand -14.7228 3.24625
rfingers 7.12502
rthumb 11.4321 -26.4221
lclavicle 1.32192e-014 -1.11319e-014
lhumerus -18.7163 6.29149 76.4313
lradius 22.45
lwrist 19.5596
lhand -14.835 -9.72814
lfingers 7.12502
lthumb 11.3239 19.9462
rfemur -10.6785 -0.395552 20.4214
rtibia 47.0365
rfoot -12.8566 -5.14038
rtoes -5.15509
lfemur 13.2753 4.972 -15.5651
ltibia 16.6892
lfoot -9.4765 -7.4833
ltoes -4.07693
43
root 0.7787 17.253 22.5155 -552.493 -27.3448 -180.393
lowerback 13.2534 -1.04744 -1.90308
upperback 11.2166 -3.07515 -0.283166
thorax 4.5056 -2.29774 0.993195
lowerneck 1.38094 -11.0353 -15.2948
upperneck -5.77755 -14.9328 19.5794
head 0.819433 -7.73012 8.06747
rclavicle -4.72114e-015 -4.57205e-015
rhumerus -33.5008 -0.614565 -85.0738
rradius 26.1664
rwrist -1.26007
rhand -14.6474 3.14301
rfingers 7.12502
rthumb 11.5048 -26.5213
lclavicle -4.72114e-015 -4.57205e-015
lhumerus -18.5072 6.53084 76.3328
lradius 22.8644
lwrist 19.7257
lhand -14.8203 -9.77943
lfingers 7.12502
lthumb 11.3381 19.8941
rfemur -10.9608 -0.607255 20.2214
rtibia 46.7795
rfoot -12.5302 -5.61012
rtoes -5.21687
lfemur 13.7194 5.11979 -15.5118
ltibia 16.1425
lfoot -9.36582 -7.25414
ltoes -3.99027
44
root 0.758609 17.2591 22.5042 -552.552 -27.0031 -180.332
lowerback 13.3788 -1.06951 -1.82489
upperback 11.2931 -3.12894 -0.254908
thorax 4.52185 -2.33378 0.98601
lowerneck 1.17935 -10.962 -15.2448
upperneck -5.81659 -14.8037 19.4986
head 0.808062 -7.65851 8.03465
rclavicle -4.46272e-014 1.66979e-014
rhumerus -33.3635 -0.78881 -84.889
rradius 25.9927
rwrist -1.08082
rhand -14.5394 3.06623
rfingers 7.12502
rthumb 11.609 -26.5922
lclavicle -4.46272e-014 1.66979e-014
lhumerus -18.2909 6.82784 76.2587
lradius 23.2376
lwrist 19.7706
lhand -14.783 -9.8518
lfingers 7.12502
lthumb 11.374 19.8197
rfemur -11.2381 -0.877828 20.0192
rtibia 46.4927
rfoot -12.2021 -6.05107
rtoes -5.50541
lfemur 14.1572 5.2392 -15.4614
ltibia 15.5808
lfoot -9.19845 -7.02897
ltoes -3.79609
45
root 0.739957 17.2642 22.4915 -552.614 -26.6654 -180.278
lowerback 13.5144 -1.08951 -1.74719
upperback 11.3684 -3.18035 -0.2346
thorax 4.53079 -2.36845 0.971268
lowerneck 1.02193 -10.8822 -15.1683
upperneck -5.88359 -14.6674 19.3952
head 0.776211 -7.58578 7.99545
rclavicle 3.598e-014 -5.1684e-015
rhumerus -33.2601 -0.841122 -84.7787
rradius 25.9024
rwrist -1.06427
rhand -14.4528 2.91033
rfingers 7.12502
rthumb 11.6925 -26.7434
lclavicle 3.598e-014 -5.1684e-015
lhumerus -18.095 7.04755 76.2097
lradius 23.5832
lwrist 19.7768
lhand -14.8287 -9.94136
lfingers 7.12502
lthumb 11.33 19.7326
rfemur -11.4898 -1.07636 19.8234
rtibia 46.165
rfoot -11.8517 -6.49261
rtoes -5.77067
lfemur 14.5997 5.39003 -15.405
ltibia 15.0467
lfoot -9.10236 -6.8123
ltoes -3.95145
46
root 0.722852 17.2703 22.4777 -552.674 -26.3316 -180.215
lowerback 13.6739 -1.09884 -1.63945
upperback 11.4422 -3.21538 -0.226203
thorax 4.52267 -2.39261 0.927313
lowerneck 0.816897 -10.8248 -15.0675
upperneck -5.90576 -14.5619 19.3007
head 0.76953 -7.52647 7.94778
rclavicle 1.39149e-014 -1.80894e-014
rhumerus -33.1879 -0.941785 -84.7011
rradius 25.8675
rwrist -1.06024
rhand -14.3967 2.78708
rfingers 7.12502
rthumb 11.7466 -26.8636
lclavicle 1.39149e-014 -1.80894e-014
lhumerus -17.8778 7.20856 76.1657
lradius 23.8902
lwrist 19.6842
lhand -14.9061 -10.0614
lfingers 7.12502
lthumb 11.2553 19.6166
rfemur -11.7507 -1.23449 19.6444
rtibia 45.8056
rfoot -11.5115 -6.91528
rtoes -5.84831
lfemur 15.0336 5.51323 -15.3393
ltibia 14.5039
lfoot -8.97837 -6.5772
ltoes -4.02564
47
root 0.70727 17.2748 22.4633 -552.753 -26.0261 -180.132
lowerback 13.845 -1.1189 -1.52496
upperback 11.5151 -3.26498 -0.196694
thorax 4.509 -2.42472 0.903772
lowerneck 0.684025 -10.7584 -15.0602
upperneck -5.97254 -14.45 19.2586
head 0.749013 -7.46727 7.93745
rclavicle 4.28878e-014 -1.09332e-014
rhumerus -33.1379 -0.948924 -84.6354
rradius 25.8893
rwrist -1.09825
rhand -14.3904 2.6379
rfingers 7.12502
rthumb 11.7527 -27.0124
lclavicle 4.28878e-014 -1.09332e-014
lhumerus -17.6663 7.3187 76.1804
lradius 24.1362
lwrist 19.4838
lhand -15.0503 -10.18
lfingers 7.12502
lthumb 11.1163 19.5056
rfemur -11.9909 -1.36082 19.4848
rtibia 45.4151
rfoot -11.1493 -7.35572
rtoes -5.86475
lfemur 15.488 5.69253 -15.2184
ltibia 13.9257
lfoot -8.7964 -6.45266
ltoes -3.97025
48
root 0.692533 17.2807 22.4466 -552.811 -25.7154 -180.072
lowerback 14.0169 -1.13192 -1.43069
upperback 11.581 -3.30546 -0.177942
thorax 4.48742 -2.45249 0.879974
lowerneck 0.589325 -10.6832 -15.0325
upperneck -6.08045 -14.327 19.2156
head 0.706965 -7.40577 7.92866
rclavicle -2.17172e-014 3.24019e-014
rhumerus -33.1302 -0.872063 -84.6253
rradius 25.9831
rwrist -1.25731
rhand -14.4029 2.50171
rfingers 7.12502
rthumb 11.7406 -27.1493
lclavicle -2.17172e-014 3.24019e-014
lhumerus -17.4758 7.44946 76.1791
lradius 24.3541
lwrist 19.2512
lhand -15.0756 -10.3035
lfingers 7.12502
lthumb 11.0918 19.3834
rfemur -12.2395 -1.45621 19.3152
rtibia 44.9975
rfoot -10.7586 -7.77127
rtoes -5.84283
lfemur 15.9636 5.82629 -15.1316
ltibia 13.3111
lfoot -8.62469 -6.24382
ltoes -3.91167
49
root 0.679026 17.2862 22.4287 -552.855 -25.4334 -180.047
lowerback 14.1997 -1.13922 -1.36922
upperback 11.6475 -3.34196 -0.164983
thorax 4.46213 -2.4804 0.868692
lowerneck 0.481287 -10.6288 -15.0272
upperneck -6.15178 -14.2344 19.1848
head 0.685582 -7.35767 7.92213
rclavicle -7.30534e-015 -1.78906e-014
rhumerus -33.1672 -0.7138 -84.6667
rradius 26.1523
rwrist -1.53863
rhand -14.464 2.41105
rfingers 7.12502
rthumb 11.6817 -27.2433
lclavicle -7.30534e-015 -1.78906e-014
lhumerus -17.3167 7.32108 76.2082
lradius 24.6054
lwrist 19.1698
lhand -15.1047 -10.3972
lfingers 7.12502
lthumb 11.0638 19.2912
rfemur -12.4841 -1.52919 19.112
rtibia 44.5606
rfoot -10.3535 -8.19112
rtoes -5.91688
lfemur 16.4471 6.00506 -15.0563
ltibia 12.6661
lfoot -8.43445 -6.10986
ltoes -3.93381
50
root 0.666391 17.2908 22.4098 -552.924 -25.1499 -179.991
lowerback 14.4085 -1.15236 -1.25669
upperback 11.7137 -3.38237 -0.158461
thorax 4.41989 -2.5072 0.824198
lowerneck 0.412604 -10.5659 -15.0091
upperneck -6.25336 -14.1325 19.1573
head 0.646824 -7.30778 7.91908
rclavicle 1.24737e-014 -6.75868e-015
rhumerus -33.197 -0.691855 -84.6703
rradius 26.3036
rwrist -1.62134
rhand -14.4624 2.41697
rfingers 7.12502
rthumb 11.6832 -27.2373
lclavicle 1.24737e-014 -6.75868e-015
lhumerus -17.1469 7.15309 76.2375
lradius 24.8092
lwrist 19.1015
lhand -15.122 -10.4846
lfingers 7.12502
lthumb 11.0471 19.2047
rfemur -12.707 -1.56191 18.942
rtibia 44.1044
rfoot -9.94229 -8.59168
rtoes -5.60866
lfemur 16.9802 6.15157 -14.9596
ltibia 11.9568
lfoot -8.22237 -5.91259
ltoes -4.19767
